<?xml version="1.0" encoding="UTF-8"?><svg id="Capa_1" xmlns="http://www.w3.org/2000/svg" xmlns:xlink="http://www.w3.org/1999/xlink" viewBox="0 0 768 768"><defs><style>.cls-1{fill:url(#Degradado_sin_nombre_28);}</style><linearGradient id="Degradado_sin_nombre_28" x1="22.33" y1="742.67" x2="742.67" y2="22.33" gradientUnits="userSpaceOnUse"><stop offset="0" stop-color="#a855f7"/><stop offset="1" stop-color="#3b82f6"/></linearGradient></defs><rect class="cls-1" width="765" height="765" rx="76.23" ry="76.23"/><path d="M261.19,221.15v46.25h-49.41v139.81h-58.34v-139.81h-48.88v-46.25h156.63Z"/><path d="M319.4,396.7c-14.63-8.23-26.24-19.62-34.82-34.16-8.59-14.54-12.88-30.92-12.88-49.14s4.29-34.6,12.88-49.14c8.58-14.54,20.19-25.89,34.82-34.03,14.63-8.15,30.7-12.22,48.22-12.22s33.55,4.07,48.09,12.22c14.54,8.15,26.06,19.49,34.56,34.03,8.5,14.54,12.75,30.92,12.75,49.14s-4.25,34.6-12.75,49.14c-8.5,14.54-20.06,25.93-34.69,34.16-14.63,8.24-30.62,12.35-47.96,12.35s-33.6-4.11-48.22-12.35ZM394.43,343.49c6.31-7.44,9.46-17.48,9.46-30.09s-3.15-22.9-9.46-30.35c-6.31-7.44-15.24-11.17-26.81-11.17s-20.76,3.72-27.07,11.17c-6.31,7.45-9.46,17.57-9.46,30.35s3.15,22.65,9.46,30.09c6.31,7.45,15.33,11.17,27.07,11.17s20.5-3.72,26.81-11.17Z"/><path d="M156.63,413.85v46.25h-49.41v139.81h-58.34v-139.81H0v-46.25h156.63Z"/><path d="M214.84,589.4c-14.63-8.23-26.24-19.62-34.82-34.16-8.59-14.54-12.88-30.92-12.88-49.14s4.29-34.6,12.88-49.14c8.58-14.54,20.19-25.89,34.82-34.03,14.63-8.15,30.7-12.22,48.22-12.22s33.55,4.07,48.09,12.22c14.54,8.15,26.06,19.49,34.56,34.03,8.49,14.54,12.75,30.92,12.75,49.14s-4.25,34.6-12.75,49.14c-8.5,14.54-20.06,25.93-34.69,34.16-14.63,8.24-30.62,12.35-47.96,12.35s-33.6-4.11-48.22-12.35ZM289.87,536.19c6.31-7.44,9.46-17.48,9.46-30.09s-3.15-22.9-9.46-30.35c-6.31-7.44-15.24-11.17-26.81-11.17s-20.76,3.72-27.07,11.17c-6.31,7.45-9.46,17.57-9.46,30.35s3.15,22.65,9.46,30.09c6.31,7.45,15.33,11.17,27.07,11.17s20.5-3.72,26.81-11.17Z"/><path d="M421.92,589.4c-14.63-8.23-26.24-19.62-34.82-34.16-8.58-14.54-12.88-30.92-12.88-49.14s4.29-34.6,12.88-49.14c8.58-14.54,20.19-25.89,34.82-34.03,14.63-8.15,30.7-12.22,48.22-12.22s33.55,4.07,48.09,12.22c14.54,8.15,26.06,19.49,34.56,34.03,8.49,14.54,12.75,30.92,12.75,49.14s-4.25,34.6-12.75,49.14c-8.5,14.54-20.06,25.93-34.69,34.16-14.63,8.24-30.62,12.35-47.96,12.35s-33.6-4.11-48.22-12.35ZM496.95,536.19c6.31-7.44,9.46-17.48,9.46-30.09s-3.15-22.9-9.46-30.35c-6.31-7.44-15.24-11.17-26.81-11.17s-20.76,3.72-27.07,11.17c-6.31,7.45-9.46,17.57-9.46,30.35s3.15,22.65,9.46,30.09c6.31,7.45,15.33,11.17,27.07,11.17s20.5-3.72,26.81-11.17Z"/><path d="M765,599.91h-58.34l-61.76-93.56v93.56h-58.34v-186.06h58.34l61.76,95.13v-95.13h58.34v186.06Z"/></svg>